<?xml version="1.0" encoding="UTF-8"?>
<svg id="Camada_1" xmlns="http://www.w3.org/2000/svg" version="1.1" viewBox="0 0 194.46 85.97">
  <!-- Generator: Adobe Illustrator 29.5.1, SVG Export Plug-In . SVG Version: 2.1.0 Build 141)  -->
  <defs>
    <style>
      .st0 {
        fill: #fff;
      }
    </style>
  </defs>
  <path class="st0" d="M32.97,72.96c-11.01,0-19.97-8.96-19.97-19.97V2.44C13,1.09,11.91,0,10.57,0H2.44C1.09,0,0,1.09,0,2.44v50.97c0,.11,0,.21,0,.32.19,8.64,3.7,16.73,9.89,22.8,6.21,6.09,14.4,9.44,23.07,9.44,1.35,0,2.44-1.09,2.44-2.44v-8.13c0-1.35-1.09-2.44-2.44-2.44"/>
  <path class="st0" d="M120.71,0c-17.86,0-32.59,14.46-32.96,32.29-.01.09-.01.18-.01.27v50.97c0,1.35,1.09,2.44,2.44,2.44h8.13c1.35,0,2.44-1.09,2.44-2.44v-42.41h13.11s0,0,0,0c.65,0,1.27-.26,1.72-.71.46-.46.71-1.08.71-1.72v-8.13c0-1.35-1.09-2.44-2.43-2.44h-12.52c2.18-8.79,10.08-15.12,19.37-15.12,1.35,0,2.44-1.09,2.44-2.44V2.44c0-1.35-1.09-2.44-2.44-2.44"/>
  <path class="st0" d="M71.68,72.96c-5.31,0-9.62-4.32-9.62-9.62V27.11c0-1.35-1.09-2.44-2.44-2.44h-8.13c-1.35,0-2.44,1.09-2.44,2.44v36.23c0,12.48,10.15,22.63,22.63,22.63,1.35,0,2.44-1.09,2.44-2.44v-8.13c0-1.35-1.09-2.44-2.44-2.44"/>
  <path class="st0" d="M192.02,50.05h-8.13c-1.35,0-2.44,1.09-2.44,2.44,0,11.29-9.18,20.48-20.47,20.48s-20.48-9.19-20.48-20.48,9.19-20.48,20.48-20.48c4.01,0,8.04,1.25,11.42,3.5l-20.21,16.74c-1.04.86-1.18,2.4-.32,3.43l5.18,6.26c.41.5,1.01.81,1.65.87h.23c.57.01,1.12-.19,1.56-.55l25.87-21.43c2.73-2.26,3.16-6.23.97-9.02-6.39-8.14-15.99-12.81-26.34-12.81-18.46,0-33.48,15.02-33.48,33.48s15.02,33.48,33.48,33.48,33.48-15.02,33.48-33.48c0-1.35-1.09-2.44-2.44-2.44"/>
  <path class="st0" d="M65,9.5c0,5.25-4.26,9.5-9.5,9.5s-9.5-4.25-9.5-9.5S50.25,0,55.49,0s9.5,4.26,9.5,9.5"/>
</svg>