<?xml version="1.0" encoding="UTF-8"?>
<svg id="Layer_1" xmlns="http://www.w3.org/2000/svg" version="1.1" viewBox="0 0 444.54 465.18">
  <!-- Generator: Adobe Illustrator 29.8.2, SVG Export Plug-In . SVG Version: 2.1.1 Build 3)  -->
  <defs>
    <style>
      .st0 {
        fill: #c0accc;
      }
    </style>
  </defs>
  <path class="st0" d="M274.53,194.62c194.12-141.04,41.85-251.67-32.3-23.47,74.15-228.2-114.07-228.2-39.93,0-74.15-228.2-226.42-117.57-32.3,23.47-194.12-141.04-252.29,37.97-12.34,37.97-239.95,0-181.78,179.01,12.34,37.97-194.12,141.04-41.85,251.67,32.3,23.47-74.15,228.2,114.07,228.2,39.93,0,74.15,228.2,226.42,117.57,32.3-23.47,194.12,141.04,252.29-37.97,12.34-37.97,239.95,0,181.78-179.01-12.34-37.97Z"/>
</svg>