<svg width="190" height="81" viewBox="0 0 190 81" fill="none" xmlns="http://www.w3.org/2000/svg">
<path d="M0.513808 10.6447C1.2247 10.5435 1.99452 10.5777 2.639 10.3104C14.4324 5.35478 26.8986 3.75681 39.4433 4.58377C86.8659 7.73168 128.571 24.7919 163.692 57.1173C167.885 60.9796 171.318 65.6516 175.113 69.9524C174.863 70.3127 174.612 70.6731 174.362 71.0235C172.992 70.4876 171.609 69.9808 170.252 69.4059C166.259 67.7177 162.299 65.9921 158.294 64.3229C157.266 63.8959 156.163 63.4024 155.106 63.4346C154.302 63.4577 153.135 64.0928 152.837 64.7704C152.541 65.438 152.851 66.7684 153.397 67.3258C154.256 68.2104 155.492 68.7853 156.643 69.3129C163.941 72.6418 171.253 75.9218 178.576 79.2026C179.3 79.5341 180.057 79.8482 180.824 80.0327C183.775 80.7507 185.431 80.1465 185.949 77.3097C187.314 69.7371 188.363 62.0979 189.412 54.4687C189.66 52.6932 188.765 51.2738 186.782 51.1082C184.859 50.9476 183.766 52.1407 183.477 53.9129C182.71 58.6555 182.041 63.4163 181.306 68.3723C180.675 68.1189 180.127 68.0732 179.92 67.785C166.667 49.6088 149.088 36.6106 129.618 25.9432C105.725 12.8491 80.3134 4.2442 53.2179 1.01785C39.9235 -0.564142 26.5913 -0.613942 13.5741 3.13564C9.60515 4.27928 5.86026 6.22433 2.0573 7.90363C1.27578 8.24979 0.6802 9.01287 -4.9265e-05 9.58825C0.170959 9.94372 0.332833 10.2884 0.503841 10.6439L0.513808 10.6447Z" fill="#C5AFD5"/>
</svg>
