<svg width="197" height="64" viewBox="0 0 197 64" fill="none" xmlns="http://www.w3.org/2000/svg">
<path d="M18.6717 5.30514C12.2303 4.18717 6.59133 0.44239 -8.45648e-06 3.0491C5.10098 4.53862 10.202 6.02815 15.6501 7.62834C12.5497 19.8955 18.396 26.8845 27.4335 32.0169C28.7598 32.7705 30.2448 33.3395 31.7156 33.6613C34.4799 34.2853 36.9842 33.6382 38.8332 31.1706C40.6317 28.7842 40.211 26.0941 38.7627 24.0703C35.7834 19.8978 32.4736 15.9633 29.0524 12.1608C27.5872 10.5396 25.5168 9.51575 23.329 7.93001C25.8715 4.81702 29.1329 4.5716 32.2924 4.37266C43.7918 3.62412 54.5004 7.02039 65.4929 11.0982C64.7162 21.3548 70.489 28.1335 77.0729 34.453C82.7455 39.8916 88.4164 45.3445 95.886 48.0353C98.1455 48.8489 100.528 49.4306 102.911 49.7523C106.125 50.1806 109.258 49.4732 111.066 46.3799C112.87 43.3152 112.324 39.8889 110.405 37.2496C107.778 33.6362 105.037 29.808 101.548 27.2403C94.7641 22.2275 87.4348 18.0211 80.3193 13.506C78.4847 12.3495 76.5982 11.2882 74.1608 9.83376C83.619 5.92675 92.4861 7.35676 100.88 9.68773C131.022 18.0679 158.022 33.1059 182.782 52.6482C183.113 52.9016 183.283 53.3682 183.939 54.3075C172.924 51.5562 162.783 47.0239 151.896 46.2369C151.734 46.8256 151.584 47.4302 151.423 48.0189C165.428 53.0949 179.435 58.1566 193.441 63.2326C197.181 58.2878 196.042 53.7269 195.173 49.3405C192.338 35.1302 189.422 28.6392 184.292 25.0375C182.267 29.3489 184.752 32.9899 185.58 36.7506C186.41 40.4828 187.567 44.1356 187.691 48.3818C185.464 46.4016 183.34 44.2451 180.981 42.4527C157.292 24.4735 131.35 11.2427 102.73 4.21569C95.7875 2.50772 88.3131 2.97984 81.0815 2.75661C78.9598 2.69494 76.3475 3.07006 74.7164 4.31945C69.6266 8.21921 64.8954 6.51064 59.7698 4.74394C54.776 3.03518 49.5815 1.76644 44.3836 0.901777C35.3181 -0.607979 26.3062 -0.855066 18.6885 5.27813L18.6717 5.30514ZM69.0697 14.369C71.3149 14.3143 72.0308 14.0902 72.5443 14.3205C83.4756 19.2004 93.8346 25.1292 102.663 33.5175C104.715 35.4637 106.405 38.0488 107.607 40.6666C108.935 43.5293 107.38 46.0872 104.396 45.6989C100.567 45.2025 96.5354 44.2937 93.1923 42.4067C85.3993 38.0188 79.0633 31.5823 73.6903 24.3135C71.7786 21.7327 70.8691 18.3385 69.0697 14.369ZM19.7027 10.7207C30.0391 15.2314 35.9337 22.2835 35.4885 29.2979C25.6416 30.475 17.2082 20.8882 19.7027 10.7207Z" fill="#C5AFD5"/>
</svg>
