<svg width="148" height="98" viewBox="0 0 148 98" fill="none" xmlns="http://www.w3.org/2000/svg">
<path d="M17.2074 7.5747C10.2705 15.7205 8.68172 25.959 2.05695 33.8531C1.9009 34.0386 1.20579 33.8531 0 33.7869C0.241159 31.9458 0.0993017 30.0385 0.75185 28.3961C3.74506 20.8331 6.62478 13.2171 10.1854 5.87932C13.5475 -1.0744 17.7181 -1.69693 24.0733 3.15081C29.8895 7.58794 35.5922 12.131 41.3091 16.6741C41.9191 17.1642 42.2454 17.9589 43.437 19.6146C33.663 18.8199 28.627 11.8396 20.3283 8.3959C22.0306 15.4291 23.1796 21.6808 25.0805 27.7206C31.4925 48.1447 42.1745 66.1317 60.5593 79.3901C84.8454 96.9002 115.075 97.8539 140.738 82.1318C140.922 82.0126 141.106 81.8802 141.305 81.7875C143.319 80.8206 145.589 77.8139 147.533 80.953C149.277 83.7742 145.717 84.7941 143.759 85.9862C112.721 104.768 76.49 101.337 50.1469 77.0324C33.2232 61.4164 23.9315 42.0916 19.4204 20.5682C18.5125 16.2635 17.9592 11.9059 17.2358 7.5747H17.2074Z" fill="#C5AFD5"/>
</svg>
