<svg width="152" height="97" viewBox="0 0 152 97" fill="none" xmlns="http://www.w3.org/2000/svg">
<path d="M19.1922 11.7124C30.516 19.6996 37.2903 32.4346 50.6874 37.6925C53.5781 32.7931 51.3875 29.6049 48.3249 28.5484C43.9966 27.0398 41.6166 23.8482 38.8901 20.8361C33.8424 15.2458 28.9552 9.50882 24.0564 3.80207C19.4933 -1.51493 16.7473 -1.32033 13.7698 4.79658C9.77501 12.9719 5.89525 21.2088 2.00039 29.4399C1.25075 31.0279 0.721938 32.7182 2.05683e-05 34.5949C6.19173 34.3707 6.79318 33.6638 16.4438 15.7457C17.3366 17.6181 18.1961 18.9911 18.6811 20.4807C27.8406 48.6579 45.3271 69.527 72.4783 81.8653C84.0804 87.145 96.1468 89.9104 108.808 86.4413C112.317 85.4804 114.812 86.6141 117.474 88.3505C125.518 93.547 134.349 96.3361 143.89 96.7399C146.33 96.8446 148.782 96.4674 151.28 95.5176C139.838 92.8881 128.148 91.5356 118.6 83.2588C119.915 82.0965 121.032 81.0845 122.175 80.0992C132.532 71.2096 135.48 58.0449 129.933 45.5037C125.057 34.5068 114.096 29.995 103.564 34.6479C91.7403 39.8637 86.7817 51.9422 92.3434 62.9597C94.3022 66.8406 97.2773 70.2436 99.9408 73.7353C101.464 75.7284 103.32 77.4851 105.507 79.8724C99.0834 82.2315 93.2096 81.6745 87.4688 80.2306C64.8462 74.5164 46.9966 61.7602 33.972 42.5033C29.7675 36.2992 26.654 29.3333 23.3356 22.584C21.6289 19.1302 20.5675 15.3514 19.2224 11.724L19.1922 11.7124ZM124.036 68.2713C121.751 70.3804 118.363 73.8204 114.558 76.7695C113.542 77.5603 110.748 77.4755 109.751 76.6403C103.832 71.601 98.2389 66.1658 95.6698 58.506C93.3722 51.6281 97.012 44.1502 104.189 40.5523C111.041 37.1246 117.888 38.5772 121.963 44.7139C126.402 51.3905 126.808 58.722 124.021 68.2655L124.036 68.2713Z" fill="#C5AFD5"/>
</svg>
