<svg width="48" height="48" viewBox="0 0 48 48" fill="none" xmlns="http://www.w3.org/2000/svg">
<g clip-path="url(#clip0_126_1162)">
<path d="M10.425 3.3999H37.575C41.7 3.3999 45 6.82212 45 11.0999V37.6999C45 41.9777 41.7 45.3999 37.575 45.3999H10.425C6.3 45.3999 3 41.9777 3 37.6999V11.0999C3 6.82212 6.3 3.3999 10.425 3.3999Z" fill="#C5AFD5"/>
<path d="M23.325 28.2887H16.95L15.675 32.722C15.675 32.8776 15.525 32.9554 15.375 32.9554H12.15C12 32.9554 11.925 32.8776 11.925 32.6443L17.475 16.0776C17.55 15.922 17.55 15.6887 17.625 15.4554C17.7 15.1443 17.775 14.8332 17.7 14.4443C17.7 14.3665 17.775 14.2887 17.85 14.2109C17.85 14.2109 17.85 14.2109 17.925 14.2109H22.35C22.5 14.2109 22.575 14.2887 22.575 14.3665L28.875 32.5665C28.95 32.722 28.875 32.8776 28.725 32.8776H25.125C24.975 32.8776 24.9 32.7998 24.825 32.6443L23.325 28.2887ZM17.925 25.1776H22.65C22.575 24.7887 22.125 23.9332 21.975 23.4665C21.825 22.9998 21.6 22.6109 21.45 22.0665C21.3 21.522 21.15 20.9776 20.925 20.4332C20.775 19.8887 20.625 19.3443 20.475 18.8776C20.325 18.3332 20.175 17.8665 20.1 17.4776C19.95 18.2554 19.725 19.0332 19.5 19.8109C19.275 20.6665 18.975 21.522 18.675 22.4554C18.45 23.2332 18.15 24.3998 17.925 25.1776Z" fill="black"/>
<path d="M32.5501 17.1666C31.9501 17.1666 31.4251 16.9333 31.0501 16.5444C30.6751 16.0777 30.4501 15.5333 30.4501 14.9111C30.4501 14.2889 30.6751 13.7444 31.0501 13.2777C31.5001 12.8889 32.0251 12.6555 32.6251 12.6555C33.2251 12.6555 33.7501 12.8111 34.2001 13.2777C34.5751 13.7444 34.8001 14.2889 34.8001 14.9111C34.8001 15.5333 34.5751 16.0777 34.2001 16.5444C33.7501 16.9333 33.1501 17.1666 32.5501 17.1666ZM30.7501 32.5666V19.3444C30.7501 19.1889 30.8251 19.1111 30.9751 19.1111H34.1251C34.2751 19.1111 34.3501 19.1889 34.3501 19.3444V32.4889C34.3501 32.6444 34.2751 32.8 34.1251 32.8H30.9751C30.8251 32.8 30.7501 32.7222 30.7501 32.5666Z" fill="black"/>
</g>
<defs>
<clipPath id="clip0_126_1162">
<rect width="42" height="42" fill="white" transform="translate(3 3.3999)"/>
</clipPath>
</defs>
</svg>
