<?xml version="1.0" encoding="UTF-8"?>
<svg id="Layer_1" xmlns="http://www.w3.org/2000/svg" version="1.1" viewBox="0 0 1245.33 1245.32">
  <!-- Generator: Adobe Illustrator 29.8.2, SVG Export Plug-In . SVG Version: 2.1.1 Build 3)  -->
  <defs>
    <style>
      .st0 {
        fill: #c5afd5;
      }
    </style>
  </defs>
  <path class="st0" d="M1244.27,586.41c-.19-3.26-.41-6.53-.65-9.78-2.16-29.21-6.39-58.24-12.64-86.86-4.36-19.94-9.71-39.7-16-59.12-5.76-17.77-12.33-35.31-19.67-52.49-8.02-18.8-16.99-37.22-26.83-55.14-5.47-9.97-11.23-19.82-17.24-29.47-20.41-32.78-43.82-63.59-69.94-92.03-.17-.19-.35-.37-.52-.56-.31-.33-.61-.67-.91-1-43.89-47.46-94.89-87.81-151.19-119.58-68.82-38.83-144.39-64.21-222.69-74.78-44.85-6.06-90.22-7.21-135.32-3.43-93.07,7.8-183.2,36.44-263.71,83.8-80.84,47.55-149.9,112.75-202.01,190.73-16.96,25.38-32.02,51.97-45.08,79.55C24.71,430.52,4.6,511.02.7,593.11c-2.99,62.85,3.57,125.79,19.45,186.67,9.61,36.85,22.57,72.74,38.74,107.22,7.12,15.19,14.88,30.12,23.2,44.68,8.55,14.95,17.74,29.58,27.49,43.77,11.72,17.04,24.3,33.52,37.66,49.31,19.71,23.3,41.1,45.12,64.02,65.29,24.82,21.85,51.34,41.69,79.31,59.32,43.48,27.41,90.18,49.34,139.05,65.27,43.12,14.06,87.65,23.37,132.79,27.76,96.42,9.37,193.69-3.88,284.08-38.7,44.67-17.21,87.21-39.51,126.76-66.46,78.65-53.59,143.98-124.49,190.95-207.26,27.65-48.73,48.6-100.97,62.28-155.29,15.48-61.49,21.48-124.98,17.79-188.28ZM316.6,624.41c1.15-23.79,4.06-47.89,8.72-72.32,12.13-63.61,36.49-121.73,73.09-174.38,31.85-44.51,69.65-81.48,113.41-110.89,53.75-36.13,121.87-54.63,187.02-54.97,37.3-.26,75.77,5.71,109.98,20.8,33.96,14.98,57.96,39.47,72.01,73.47,14.13,37.78,12.12,79.49-2.53,116.67-4.21,10.69-9.79,20.63-16.75,29.82-18.56,24.36-59.61,62.48-93.45,50.68-5.71-1.98-9.57-4.49-11.15-10.46-2.22-15.01,8.28-33.45,15.5-46.96,9.53-17.81,16.67-37.41,20.77-56.38,2.47-11.42,3.37-21.45,2.71-30.09-1.08-14-3.88-28.9-9.16-42.33-10.05-24.4-27.92-40.05-53.63-46.94-52.05-13.96-110.26,11.38-151.09,42.45-57.48,43.75-96.46,106.85-117.02,175.82-11.81,39.4-19.42,79.65-22.85,120.76-1.47,17.63-1.97,35.33-1.5,53.09.49,19.41,2.29,38.74,5.4,57.98,3.37,21.23,8.46,42.07,15.25,62.5,6.17,18.65,14.5,36.24,24.98,52.75,10.71,16.9,23.8,31.57,39.27,44.01,18.77,14.67,39.88,24.72,63.34,30.15,41.45,9.59,81.71,6.85,120.79-8.22,29.71-11.45,55.86-28.62,80.66-49.3,9.16-7.64,16.81-15,22.94-22.08,11.14-12.85,21.22-27.13,29.94-41.04,11.66-18.62,24.93-41.24,38.51-62.24.13-.21.3-.39.49-.56,4.18-3.54,11.36-1.26,15.12,1.74,1.84,1.47,2.84,2.89,2.99,4.28,1.09,9.86.45,20.87-1.9,33.04-4.53,19.47-12.41,38.67-23.62,57.6-21.2,35.82-49.72,67.71-80.73,95.72-14.32,12.93-28.17,23.28-43.51,31.77-53.73,29.77-117.43,43.68-178.14,38.29-40.46-4.2-79.22-15.5-114.54-35.83-27.85-16.4-51.68-37.38-71.51-62.94-11.67-15.09-21.77-31.18-30.29-48.26-7.35-14.75-13.64-30-18.89-45.76-5.76-17.59-10.37-35.59-13.83-53.99-6.93-38.82-9.19-77.97-6.8-117.45Z"/>
</svg>