<?xml version="1.0" encoding="UTF-8"?>
<svg id="Layer_1" xmlns="http://www.w3.org/2000/svg" version="1.1" viewBox="0 0 144.1 106.61">
  <!-- Generator: Adobe Illustrator 29.8.2, SVG Export Plug-In . SVG Version: 2.1.1 Build 3)  -->
  <defs>
    <style>
      .st0 {
        fill: #c5afd5;
      }
    </style>
  </defs>
  <path class="st0" d="M.05,17.4C1.14,7.82,9.02.45,18.65.01h81.94c5.95.49,11.36,3.63,14.75,8.54,1.51,2.21,2.57,4.69,3.13,7.31l24.08-11.94c.53-.26,1.17-.05,1.44.48.05.11.09.22.1.34v13.54c.02.93-.53,1.77-1.39,2.12-22.15,10.99-44.31,21.99-66.47,33l66.32,32.81c.87.3,1.47,1.09,1.54,2v13.56c0,.61-.49,1.11-1.1,1.12-.24,0-.47-.07-.67-.22-7.9-4-15.91-7.77-23.75-11.85-.53,1.89-1.23,3.74-2.1,5.5-2.69,4.94-7.33,8.52-12.79,9.87-1.81.38-3.66.53-5.5.45H21.81c-1.72,0-3.45,0-5.16-.13C7.78,105.18.94,98,.05,89.08v-13.12c.15-1.12.93-2.05,2-2.39,13.62-6.73,27.21-13.52,40.85-20.22-13.74-6.84-27.49-13.66-41.25-20.46-.96-.42-1.57-1.37-1.58-2.41-.02-4.35-.09-8.72-.02-13.08ZM15.23,17.49c-.82,1.65-.44,3.56-.51,5.34,15,7.41,29.89,14.86,44.86,22.22,14.79-7.33,29.59-14.67,44.4-22,0-1.33.06-2.66,0-4-.36-2.48-2.5-4.31-5-4.28H19.8c-1.93-.06-3.71,1-4.58,2.72h0ZM14.72,83.85c.07,1.8-.32,3.74.55,5.41.89,1.68,2.65,2.7,4.55,2.65h79.23c1.79.01,3.44-.94,4.33-2.49,1-1.75.54-3.85.64-5.77-14.83-7.32-29.64-14.76-44.5-22-14.98,7.4-29.92,14.8-44.81,22.2h0Z"/>
</svg>