<svg width="248" height="116" viewBox="0 0 248 116" fill="none" xmlns="http://www.w3.org/2000/svg">
<path d="M10.3 113.24V37.4202C10.3 37.4202 8.29996 2.17023 54.2 2.17023H245.74" stroke="white" stroke-miterlimit="10"/>
<path d="M12.4799 115.42H8.12988V111.07H12.4799V115.42Z" fill="white"/>
<path d="M12.4799 39.1602H8.12988V34.8102H12.4799V39.1602Z" fill="white"/>
<path d="M55.4999 4.3501H51.1499V9.15527e-05H55.4999V4.3501Z" fill="white"/>
<path d="M247.92 4.3501H243.57V9.15527e-05H247.92V4.3501Z" fill="white"/>
<path d="M61.2899 2.18018H0.889893" stroke="white" stroke-width="0.25" stroke-miterlimit="10"/>
<path d="M0.939999 3.12012C0.419999 3.12012 0 2.70015 0 2.18015C0 1.66015 0.419999 1.24014 0.939999 1.24014C1.46 1.24014 1.88 1.66015 1.88 2.18015C1.88 2.70015 1.46 3.12012 0.939999 3.12012Z" fill="white"/>
<path opacity="0.5" d="M53 2.00024L55.1319 15.3357L57.4785 10.3761L61.9458 9.39526L53 2.00024Z" fill="#473362"/>
<path d="M53.0112 2.03345L57.0752 13.4406L59.0923 8.80665L64.0001 7.38539L53.0112 2.03345Z" fill="#C5AFD5"/>
</svg>
