<svg width="48" height="48" viewBox="0 0 48 48" fill="none" xmlns="http://www.w3.org/2000/svg">
<path d="M3 18.2C3 12.8795 3 10.2193 4.03544 8.18709C4.94624 6.39955 6.39955 4.94624 8.18709 4.03544C10.2193 3 12.8795 3 18.2 3H29.8C35.1205 3 37.7807 3 39.8129 4.03544C41.6004 4.94624 43.0538 6.39955 43.9646 8.18709C45 10.2193 45 12.8795 45 18.2V29.8C45 35.1205 45 37.7807 43.9646 39.8129C43.0538 41.6004 41.6004 43.0538 39.8129 43.9646C37.7807 45 35.1205 45 29.8 45H18.2C12.8795 45 10.2193 45 8.18709 43.9646C6.39955 43.0538 4.94624 41.6004 4.03544 39.8129C3 37.7807 3 35.1205 3 29.8V18.2Z" fill="#C5AFD5"/>
<path d="M17.3881 15.2933V33.7009C17.3881 33.8937 17.3036 33.99 17.1346 33.9899H13.7253C13.5749 33.9899 13.4997 33.8936 13.5 33.7009V15.2933C13.5 15.1393 13.5845 15.0622 13.7535 15.0621H17.1627C17.292 15.0432 17.4065 15.1606 17.3881 15.2933Z" fill="black"/>
<path d="M27.4748 34.2788C26.178 34.299 24.8931 34.0226 23.7134 33.4696C21.2091 32.2808 20.1209 29.6498 20.1212 26.9388C20.0995 24.2345 21.5318 21.6578 23.8684 20.3791C25.4814 19.4627 27.3787 19.2299 29.1935 19.3966V13.7038C29.1935 13.5692 29.2499 13.5015 29.3626 13.5015H32.9126C33.0096 13.4873 33.0955 13.5754 33.0817 13.6749V30.7533C33.0817 31.4579 33.1515 32.1601 33.1944 32.8628C33.2013 32.9828 33.1318 33.1015 33.0253 33.1518C32.1094 33.5435 31.1555 33.8341 30.1796 34.0187C29.2874 34.1876 28.3822 34.2746 27.4748 34.2788ZM29.1935 30.6955V22.8065C26.6318 22.0947 24.1216 24.0506 24.122 26.7654C24.06 29.6086 26.5951 31.4749 29.1935 30.6955Z" fill="black"/>
</svg>
