<svg width="78" height="95" viewBox="0 0 78 95" fill="none" xmlns="http://www.w3.org/2000/svg">
<path d="M38.3489 38.8191L38.0462 38.9335L36.8971 35.8919C36.6276 35.1788 35.8296 34.8184 35.1165 35.0878C34.4034 35.3572 34.043 36.1553 34.3124 36.8684L35.4616 39.91L35.1589 40.0243L30.8713 72.9227L32.0074 73.3416C35.8634 74.7618 39.1312 77.3455 41.4034 80.6746L38.1988 81.8853C37.4857 82.1547 37.1254 82.9528 37.3948 83.6659C37.6642 84.379 38.4622 84.7394 39.1753 84.47L42.8136 83.0954C43.0855 83.6479 43.3353 84.2121 43.5541 84.7913L44.998 88.613L63.1719 81.7467L61.1265 76.3329C61.1118 76.2853 61.0983 76.2405 61.0865 76.1917L64.7248 74.8172C65.4379 74.5478 65.7982 73.7497 65.5288 73.0366C65.2594 72.3235 64.4614 71.9631 63.7483 72.2325L60.5437 73.4433C60.0458 69.4405 60.7899 65.3443 62.7435 61.7292L63.3189 60.6637L38.3489 38.8191ZM57.8863 74.4473L44.0579 79.6717C41.6294 75.8762 38.0991 72.8794 33.8898 71.1137L37.3171 44.83L45.4073 66.2434C44.9656 66.8793 44.8351 67.7135 45.1298 68.4936C45.606 69.7539 47.0136 70.3895 48.2739 69.9134C49.5342 69.4372 50.1698 68.0296 49.6937 66.7693C49.399 65.9893 48.7476 65.4537 47.9977 65.2647L39.9075 43.8513L59.8583 61.3026C57.871 65.4094 57.2012 69.993 57.8892 74.4461L57.8863 74.4473Z" fill="white"/>
<path d="M14.373 32.6702L57.0371 39.142" stroke="#C5AFD5" stroke-miterlimit="10"/>
<path d="M58.8312 40.5631C58.1191 41.0816 57.1223 40.926 56.6049 40.2168C56.0864 39.5047 56.242 38.5079 56.9512 37.9905C57.6634 37.472 58.6601 37.6276 59.1775 38.3368C59.6949 39.046 59.5404 40.0457 58.8312 40.5631Z" fill="#C5AFD5"/>
<path d="M15.2598 33.8819C14.5477 34.4004 13.5509 34.2448 13.0335 33.5356C12.515 32.8235 12.6706 31.8268 13.3798 31.3094C14.092 30.7909 15.0887 30.9465 15.6061 31.6557C16.1235 32.3649 15.969 33.3645 15.2598 33.8819Z" fill="#C5AFD5"/>
<path d="M17.441 56.3203C16.0653 50.1347 18.8229 43.2423 24.0844 39.7111C30.357 35.502 39.2082 35.9962 44.7531 30.8646C48.1957 27.6781 49.6783 22.8073 49.7392 18.1178C49.8001 13.4283 48.5962 8.82422 47.4047 4.28856" stroke="#C5AFD5" stroke-width="2" stroke-miterlimit="10"/>
<path d="M48.8984 0.644373L43.243 2.78101L45.3797 8.43634L51.035 6.29971L48.8984 0.644373Z" fill="#C5AFD5" stroke="#393837" stroke-miterlimit="10"/>
<path d="M20.0488 55.0792L14.3934 57.2158L16.5301 62.8712L22.1854 60.7345L20.0488 55.0792Z" fill="#C5AFD5" stroke="#282A2B" stroke-miterlimit="10"/>
</svg>
