<svg width="48" height="48" viewBox="0 0 48 48" fill="none" xmlns="http://www.w3.org/2000/svg">
<path d="M3 18.2C3 12.8795 3 10.2193 4.03544 8.18709C4.94624 6.39955 6.39955 4.94624 8.18709 4.03544C10.2193 3 12.8795 3 18.2 3H29.8C35.1205 3 37.7807 3 39.8129 4.03544C41.6004 4.94624 43.0538 6.39955 43.9646 8.18709C45 10.2193 45 12.8795 45 18.2V29.8C45 35.1205 45 37.7807 43.9646 39.8129C43.0538 41.6004 41.6004 43.0538 39.8129 43.9646C37.7807 45 35.1205 45 29.8 45H18.2C12.8795 45 10.2193 45 8.18709 43.9646C6.39955 43.0538 4.94624 41.6004 4.03544 39.8129C3 37.7807 3 35.1205 3 29.8V18.2Z" fill="#C5AFD5"/>
<path d="M12 32.6935V13.8119C12 13.6835 12.0527 13.6101 12.1755 13.6101C13.9894 13.6101 15.8024 13.5 17.6167 13.5C20.5607 13.5 23.7484 14.526 24.8658 17.6653C25.1291 18.436 25.2695 19.225 25.2695 20.0508C25.2695 21.6288 24.9184 22.9316 24.2164 23.9592C22.2551 26.8296 18.8559 26.785 15.8088 26.785V32.6752C15.8327 32.8495 15.6869 32.9321 15.5456 32.9321H12.2106C12.0702 32.9321 12 32.8587 12 32.6935ZM15.8264 17.1515V23.317C17.0346 23.4072 18.2988 23.417 19.4597 23.0234C20.7413 22.6466 21.4431 21.5158 21.4431 20.1608C21.4787 19.0063 20.8615 17.8985 19.8107 17.4818C18.6639 16.9958 17.0644 16.9667 15.8264 17.1515Z" fill="black"/>
<path d="M27.6488 18.3179H30.7291C30.8989 18.3194 31.0514 18.4421 31.0964 18.6133C31.3222 19.1373 31.35 19.7692 31.3508 20.3349C31.879 19.6919 32.516 19.1561 33.2299 18.7544C33.9957 18.3014 34.8637 18.0719 35.7434 18.0897C35.8894 18.0679 36.0186 18.203 35.9978 18.3556V21.9302C35.9978 22.0682 35.9032 22.137 35.7152 22.137C34.4114 22.043 32.3816 22.365 31.4342 23.4369V32.7315C31.4342 32.9088 31.3588 32.9974 31.2081 32.9974H27.9032C27.7408 33.0218 27.5976 32.869 27.6205 32.702V22.6097C27.6205 21.2573 27.6486 19.8643 27.451 18.5247C27.4206 18.4015 27.5335 18.2868 27.6488 18.3179Z" fill="black"/>
</svg>
