<svg width="48" height="48" viewBox="0 0 48 48" fill="none" xmlns="http://www.w3.org/2000/svg">
<g clip-path="url(#clip0_126_1174)">
<path d="M10.425 3.3999H37.575C41.7 3.3999 45 6.82212 45 11.0999V37.6999C45 41.9777 41.7 45.3999 37.575 45.3999H10.425C6.3 45.3999 3 41.9777 3 37.6999V11.0999C3 6.82212 6.3 3.3999 10.425 3.3999Z" fill="#C5AFD5"/>
<path d="M11.7 32.7222V14.3666C11.7 14.2111 11.775 14.1333 11.85 14.1333C12.15 14.1333 12.525 14.1333 12.9 14.1333C13.275 14.1333 13.725 14.1333 14.25 14.1333C14.7 14.1333 15.225 14.1333 15.75 14.1333C16.275 14.1333 16.8 14.1333 17.325 14.1333C18.525 14.1333 19.725 14.2889 20.85 14.6777C21.75 14.9889 22.5 15.4555 23.175 16.1555C23.7 16.7 24.15 17.4 24.45 18.1777C24.675 18.9555 24.825 19.7333 24.825 20.5111C24.9 21.8333 24.525 23.1555 23.775 24.3222C23.1 25.3333 22.125 26.1111 21 26.5C19.725 26.9666 18.45 27.2 17.1 27.2C16.725 27.2 16.425 27.2 16.275 27.2C16.125 27.2 15.825 27.2 15.525 27.2V32.8777C15.525 33.0333 15.45 33.1111 15.3 33.1111H15.225H11.85C11.775 32.9555 11.7 32.8777 11.7 32.7222ZM15.525 17.5555V23.5444C15.75 23.5444 15.975 23.5444 16.2 23.5444H17.1C17.775 23.5444 18.45 23.4666 19.05 23.2333C19.575 23.0777 20.1 22.7666 20.475 22.3C20.85 21.7555 21.075 21.1333 21 20.4333C21 19.8889 20.85 19.3444 20.625 18.8777C20.325 18.4111 19.875 18.0222 19.425 17.8666C18.75 17.6333 18.075 17.4777 17.4 17.4777C16.95 17.4777 16.575 17.4777 16.2 17.4777C15.9 17.5555 15.675 17.5555 15.525 17.5555Z" fill="black"/>
<path d="M35.6249 22.3778C34.9499 22.0667 34.2749 21.9111 33.5999 21.7556C32.9999 21.6 32.3249 21.5222 31.6499 21.5222C31.2749 21.5222 30.9749 21.5222 30.5999 21.6778C30.3749 21.7556 30.2249 21.8334 30.0749 22.0667C29.9999 22.2222 29.9249 22.3778 29.9249 22.5334C29.9249 22.6889 29.9999 22.8445 30.0749 23C30.2249 23.2334 30.4499 23.3889 30.6749 23.4667C31.0499 23.7 31.4999 23.8556 31.8749 24.0889C32.7749 24.4 33.6749 24.8667 34.4999 25.4111C35.0999 25.8 35.5499 26.2667 35.8499 26.8889C36.1499 27.4334 36.2999 28.0556 36.2249 28.7556C36.2249 29.6111 35.9999 30.3889 35.5499 31.1667C35.0999 31.8667 34.4249 32.4111 33.5999 32.8C32.6249 33.1889 31.5749 33.4222 30.4499 33.3445C29.6999 33.3445 28.8749 33.2667 28.1249 33.1111C27.4499 32.9556 26.8499 32.8 26.2499 32.5667C26.0999 32.4889 26.0249 32.3334 26.0249 32.2556V29.1445C26.0249 29.0667 26.0249 28.9889 26.0999 28.9889C26.1749 28.9889 26.1749 28.9889 26.2499 28.9889C26.9249 29.3778 27.6749 29.6889 28.4999 29.8445C29.1749 30 29.8499 30.0778 30.5249 30.1556C31.0499 30.1556 31.4999 30.0778 31.9499 29.9222C32.2499 29.7667 32.3999 29.5334 32.3999 29.1445C32.3999 28.8334 32.2499 28.6 31.9499 28.4445C31.4249 28.0556 30.8249 27.8222 30.2249 27.5889C29.3249 27.2778 28.4999 26.8111 27.7499 26.2667C27.2249 25.8778 26.7749 25.3334 26.4749 24.7889C26.1749 24.2445 26.0999 23.6222 26.0999 23C26.0999 22.2222 26.3249 21.5222 26.6999 20.8222C27.1499 20.1222 27.7499 19.5 28.4999 19.1889C29.3249 18.7222 30.2999 18.4889 31.2749 18.4889C32.0249 18.4111 32.8499 18.4889 33.5999 18.4889C34.1999 18.6445 34.8749 18.8 35.3999 19.1111C35.4749 19.1111 35.5499 19.1889 35.5499 19.2667C35.5499 19.3445 35.5499 19.4222 35.5499 19.5V22.3778C35.5499 22.4556 35.5499 22.5334 35.4749 22.5334C35.7749 22.4556 35.6999 22.4556 35.6249 22.3778Z" fill="black"/>
</g>
<defs>
<clipPath id="clip0_126_1174">
<rect width="42" height="42" fill="white" transform="translate(3 3.3999)"/>
</clipPath>
</defs>
</svg>
