<svg width="50" height="350" viewBox="0 0 50 350" fill="none" xmlns="http://www.w3.org/2000/svg">
<path d="M27.8831 211.539L34.3714 217.963L38.3231 214.114L31.8984 207.498L27.8831 211.539Z" fill="#C5AFD5"/>
<path d="M26.3789 212.724L18.5393 216.497L13.7463 228.849L14.6131 229.869L21.5094 223.406C21.5094 223.406 21.4967 223.355 21.4967 223.33C21.4967 222.501 22.1723 221.826 23.0008 221.826C23.8294 221.826 24.505 222.501 24.505 223.33C24.505 224.107 23.9059 224.719 23.1538 224.809L16.3468 231.616L17.2136 232.635L30.5727 226.823L33.3389 219.71L26.3661 212.737L26.3789 212.724Z" fill="#C5AFD5"/>
<path d="M14.6387 311.541V318.118H18.4628V315.365H24.1226V330.725H21.5859V334.55H30.4835V330.725H27.9468V315.365H33.6066V318.118H37.4308V311.541H14.6387Z" fill="#C5AFD5"/>
<path d="M20.0436 270.52C18.412 271.298 17.2392 272.789 16.2194 274.293C15.1997 275.798 14.2309 277.378 12.8159 278.5C14.0014 279.915 15.9645 280.45 17.8128 280.438C20.0691 280.412 22.3636 279.622 23.906 277.977C25.3082 276.486 26.1623 273.873 25.3592 271.871C24.5689 269.896 21.739 269.717 20.0436 270.52Z" fill="#C5AFD5"/>
<path d="M28.0233 271.948C32.1024 268.863 35.4932 264.86 37.8642 260.322C38.6035 258.895 39.2664 257.365 39.2409 255.746C39.2409 255.466 39.2026 255.16 39.0624 254.918C38.6035 254.14 37.418 254.369 36.6277 254.816C33.8105 256.384 31.3376 258.474 29.145 260.82C27.0545 263.063 24.5688 265.383 23.447 268.302C23.498 268.162 24.9002 268.595 25.0277 268.672C25.4356 268.914 25.869 269.195 26.2387 269.488C27.029 270.125 27.6664 270.979 28.0233 271.935V271.948Z" fill="#C5AFD5"/>
<path d="M13.9121 158.23L22.8734 183.406L27.335 173.17L38.1574 170.046L13.9121 158.23Z" fill="#C5AFD5"/>
<path d="M30.5571 160.191V152.339H31.8894V160.191H30.5571ZM27.2975 156.931V155.599H35.149V156.931H27.2975Z" fill="#C5AFD5"/>
<path d="M13.7847 123.149L30.7385 106.82" stroke="#C5AFD5" stroke-width="3" stroke-miterlimit="10"/>
<path d="M19.6102 102.511L22.045 97.9861L22.2107 103.123L26.736 105.545L21.6116 105.724L19.1768 110.249L19.0111 105.112L14.4858 102.677L19.6102 102.511Z" fill="#C5AFD5"/>
<path d="M32.7781 100.65L34.4225 97.5911L34.5372 101.071L37.6093 102.715L34.1293 102.83L32.4849 105.89L32.3702 102.41L29.2981 100.765L32.7781 100.65Z" fill="#C5AFD5"/>
<path d="M34.8305 109.879L36.0032 107.687L36.0925 110.172L38.285 111.358L35.7993 111.447L34.6138 113.64L34.5373 111.141L32.332 109.969L34.8305 109.879Z" fill="#C5AFD5"/>
<path d="M27.6791 52.8096H12V66.6913H27.6791V52.8096Z" stroke="#C5AFD5" stroke-miterlimit="10"/>
<path d="M40.0822 42H18.7815V59.553H40.0822V42Z" stroke="#C5AFD5" stroke-miterlimit="10"/>
<path d="M29.7695 51.0888L35.1744 46.4233" stroke="#C5AFD5" stroke-miterlimit="10"/>
<path d="M33.0203 44.4983L36.7552 48.8451L37.0611 44.8042L33.0203 44.4983Z" fill="#C5AFD5"/>
<rect x="0.5" y="0.5" width="49" height="349" rx="9.5" stroke="#C5AFD5"/>
<path d="M0 10C0 4.47715 4.47715 0 10 0H40C45.5228 0 50 4.47715 50 10V21H0V10Z" fill="#C5AFD5"/>
<path d="M36.92 14L35.85 12.45L34.95 14H33.1L34.94 11.15L33.05 8.42H34.97L36.04 9.96L36.94 8.42H38.79L36.92 11.23L38.84 14H36.92Z" fill="#473362"/>
<path d="M20.6666 11L14.6666 7.5359V14.4641L20.6666 11Z" fill="#473362"/>
<path d="M18 11L12 7.5359V14.4641L18 11Z" fill="#473362"/>
</svg>
